# xmcd CD database file
#
# Track frame offsets:
#	150
#	23530
#	37966
#	57150
#	73510
#	92790
#	116395
#	130201
#	151079
#	174714
#
# Disc length: 2601 seconds
#
# Revision: 7
# Processed by: cddbd v1.5.2PL0 Copyright (c) Steve Scherf et al.
# Submitted via: CDex 1.70beta2
#
DISCID=750a270a
DTITLE=井上　陽水 - Golden Best Super [CD3]
DYEAR=2003
DGENRE=Pop
TTITLE0=とまどうペリカン (LIVE)
TTITLE1=コーヒー・ルンバ
TTITLE2=花の首飾り
TTITLE3=青春、ひとりきり (LIVE)
TTITLE4=決められたリズム
TTITLE5=ミスキャスト (LIVE)
TTITLE6=L-O-V-E (LIVE)
TTITLE7=ミス　コンテスト (LIVE)
TTITLE8=氷の世界 (LIVE)
TTITLE9=海へ来なさい (LIVE)
EXTD=YEAR: 2003
EXTT0=
EXTT1=
EXTT2=
EXTT3=
EXTT4=
EXTT5=
EXTT6=
EXTT7=
EXTT8=
EXTT9=
PLAYORDER=
